<svg width="280" height="164" viewBox="0 0 280 164" fill="none" xmlns="http://www.w3.org/2000/svg">
<g filter="url(#filter0_d_1948_2918)">
<g filter="url(#filter1_d_1948_2918)">
<rect x="8" y="6" width="264" height="148" rx="8" fill="#252F3D"/>
</g>
<mask id="mask0_1948_2918" style="mask-type:alpha" maskUnits="userSpaceOnUse" x="8" y="6" width="264" height="148">
<rect x="8" y="6" width="264" height="148" rx="8" fill="#252F3D"/>
</mask>
<g mask="url(#mask0_1948_2918)">
<path d="M-412.305 110.479C-376.734 96.6655 -340.335 93.9531 -303.109 102.342C-265.884 110.731 -229.485 108.019 -193.914 94.2048C-158.342 80.391 -121.944 77.6785 -84.7176 86.0675C-47.4917 94.4565 -11.0931 91.7441 24.4783 77.9302C60.0496 64.1164 96.4483 61.404 133.674 69.7929C170.9 78.1819 207.299 75.4695 242.87 61.6557C278.441 47.8418 314.84 45.1294 352.066 53.5184C389.292 61.9073 425.691 59.1949 461.262 45.3811C496.833 31.5672 533.232 28.8548 570.458 37.2438C607.684 45.6328 644.082 42.9203 679.654 29.1065C715.225 15.2927 751.624 12.5802 788.85 20.9692C826.076 29.3582 862.474 26.6458 898.046 12.8319C933.617 -0.981907 970.016 -3.69434 1007.24 4.69464C1044.47 13.0836 1080.87 10.3712 1116.44 -3.44264C1152.01 -17.2565 1188.41 -19.9689 1225.63 -11.5799C1262.86 -3.19095 1299.26 -5.90338 1334.83 -19.7172C1370.4 -33.5311 1406.8 -36.2435 1444.03 -27.8545C1481.25 -19.4655 1517.65 -22.178 1553.22 -35.9918C1588.79 -49.8056 1625.19 -52.5181 1662.42 -44.1291C1699.64 -35.7401 1736.04 -38.4525 1771.61 -52.2664" stroke="#F2F7FF" stroke-opacity="0.1"/>
<path d="M-411.59 120.086C-376.018 106.272 -339.62 103.56 -302.394 111.949C-265.168 120.338 -228.769 117.625 -193.198 103.811C-157.626 89.9974 -121.228 87.285 -84.0018 95.674C-46.7759 104.063 -10.3772 101.351 25.1941 87.5367C60.7655 73.7228 97.1641 71.0104 134.39 79.3994C171.616 87.7884 208.015 85.0759 243.586 71.2621C279.157 57.4483 315.556 54.7358 352.782 63.1248C390.008 71.5138 426.406 68.8014 461.978 54.9875C497.549 41.1737 533.948 38.4613 571.174 46.8502C608.4 55.2392 644.798 52.5268 680.37 38.713C715.941 24.8991 752.34 22.1867 789.565 30.5757C826.791 38.9646 863.19 36.2522 898.761 22.4384C934.333 8.62454 970.731 5.91211 1007.96 14.3011C1045.18 22.6901 1081.58 19.9776 1117.15 6.1638C1152.72 -7.65004 1189.12 -10.3625 1226.35 -1.97348C1263.57 6.4155 1299.97 3.70307 1335.54 -10.1108C1371.12 -23.9246 1407.51 -26.637 1444.74 -18.2481C1481.97 -9.85908 1518.37 -12.5715 1553.94 -26.3853C1589.51 -40.1992 1625.91 -42.9116 1663.13 -34.5226C1700.36 -26.1337 1736.76 -28.8461 1772.33 -42.6599" stroke="#F2F7FF" stroke-opacity="0.1"/>
<path d="M-410.873 129.693C-375.302 115.879 -338.903 113.167 -301.678 121.556C-264.452 129.945 -228.053 127.233 -192.482 113.419C-156.91 99.6048 -120.512 96.8924 -83.2858 105.281C-46.0599 113.67 -9.66123 110.958 25.9101 97.1441C61.4815 83.3303 97.8801 80.6178 135.106 89.0068C172.332 97.3958 208.731 94.6834 244.302 80.8695C279.873 67.0557 316.272 64.3433 353.498 72.7322C390.724 81.1212 427.122 78.4088 462.694 64.595C498.265 50.7811 534.664 48.0687 571.89 56.4577C609.115 64.8466 645.514 62.1342 681.085 48.3204C716.657 34.5065 753.055 31.7941 790.281 40.1831C827.507 48.5721 863.906 45.8596 899.477 32.0458C935.049 18.232 971.447 15.5195 1008.67 23.9085C1045.9 32.2975 1082.3 29.5851 1117.87 15.7712C1153.44 1.9574 1189.84 -0.75503 1227.06 7.63395C1264.29 16.0229 1300.69 13.3105 1336.26 -0.503336C1371.83 -14.3172 1408.23 -17.0296 1445.46 -8.64062C1482.68 -0.251641 1519.08 -2.96407 1554.65 -16.7779C1590.22 -30.5917 1626.62 -33.3042 1663.85 -24.9152C1701.07 -16.5262 1737.47 -19.2386 1773.04 -33.0525" stroke="#F2F7FF" stroke-opacity="0.1"/>
<path d="M-410.158 139.3C-374.586 125.486 -338.188 122.773 -300.962 131.162C-263.736 139.551 -227.337 136.839 -191.766 123.025C-156.194 109.211 -119.796 106.499 -82.5699 114.888C-45.344 123.277 -8.94536 120.564 26.626 106.751C62.1973 92.9367 98.596 90.2243 135.822 98.6133C173.048 107.002 209.446 104.29 245.018 90.476C280.589 76.6621 316.988 73.9497 354.214 82.3387C391.44 90.7277 427.838 88.0152 463.41 74.2014C498.981 60.3876 535.38 57.6751 572.606 66.0641C609.831 74.4531 646.23 71.7407 681.801 57.9268C717.373 44.113 753.771 41.4006 790.997 49.7895C828.223 58.1785 864.622 55.4661 900.193 41.6522C935.765 27.8384 972.163 25.126 1009.39 33.515C1046.62 41.9039 1083.01 39.1915 1118.59 25.3777C1154.16 11.5638 1190.56 8.8514 1227.78 17.2404C1265.01 25.6294 1301.41 22.9169 1336.98 9.1031C1372.55 -4.71074 1408.95 -7.42317 1446.17 0.965808C1483.4 9.35479 1519.8 6.64236 1555.37 -7.17148C1590.94 -20.9853 1627.34 -23.6977 1664.56 -15.3088C1701.79 -6.91979 1738.19 -9.63221 1773.76 -23.4461" stroke="#F2F7FF" stroke-opacity="0.1"/>
<path d="M-409.442 148.907C-373.87 135.093 -337.472 132.381 -300.246 140.77C-263.02 149.159 -226.621 146.446 -191.05 132.633C-155.479 118.819 -119.08 116.106 -81.8541 124.495C-44.6282 132.884 -8.22954 130.172 27.3418 116.358C62.9132 102.544 99.3118 99.8317 136.538 108.221C173.764 116.61 210.162 113.897 245.734 100.083C281.305 86.2696 317.704 83.5571 354.93 91.9461C392.155 100.335 428.554 97.6227 464.125 83.8088C499.697 69.995 536.095 67.2825 573.321 75.6715C610.547 84.0605 646.946 81.3481 682.517 67.5342C718.089 53.7204 754.487 51.008 791.713 59.397C828.939 67.7859 865.338 65.0735 900.909 51.2597C936.48 37.4458 972.879 34.7334 1010.1 43.1224C1047.33 51.5114 1083.73 48.7989 1119.3 34.9851C1154.87 21.1713 1191.27 18.4588 1228.5 26.8478C1265.72 35.2368 1302.12 32.5244 1337.69 18.7105C1373.26 4.89668 1409.66 2.18425 1446.89 10.5732C1484.11 18.9622 1520.51 16.2498 1556.08 2.43594C1591.66 -11.3779 1628.05 -14.0903 1665.28 -5.70134C1702.51 2.68764 1738.9 -0.0247929 1774.48 -13.8386" stroke="#F2F7FF" stroke-opacity="0.1"/>
<path d="M-408.726 158.514C-373.154 144.7 -336.756 141.987 -299.53 150.376C-262.304 158.765 -225.905 156.053 -190.334 142.239C-154.763 128.425 -118.364 125.713 -81.138 134.102C-43.9121 142.491 -7.51348 139.778 28.0579 125.964C63.6292 112.151 100.028 109.438 137.254 117.827C174.48 126.216 210.878 123.504 246.45 109.69C282.021 95.876 318.42 93.1636 355.646 101.553C392.871 109.942 429.27 107.229 464.841 93.4153C500.413 79.6014 536.811 76.889 574.037 85.278C611.263 93.667 647.662 90.9545 683.233 77.1407C718.805 63.3268 755.203 60.6144 792.429 69.0034C829.655 77.3924 866.054 74.6799 901.625 60.8661C937.196 47.0523 973.595 44.3398 1010.82 52.7288C1048.05 61.1178 1084.45 58.4054 1120.02 44.5915C1155.59 30.7777 1191.99 28.0653 1229.21 36.4542C1266.44 44.8432 1302.84 42.1308 1338.41 28.317C1373.98 14.5031 1410.38 11.7907 1447.6 20.1797C1484.83 28.5687 1521.23 25.8562 1556.8 12.0424C1592.37 -1.77145 1628.77 -4.48388 1666 3.9051C1703.22 12.2941 1739.62 9.58165 1775.19 -4.23219" stroke="#F2F7FF" stroke-opacity="0.1"/>
<path d="M-408.01 168.12C-372.439 154.306 -336.04 151.594 -298.814 159.983C-261.588 168.372 -225.189 165.659 -189.618 151.845C-154.047 138.032 -117.648 135.319 -80.4222 143.708C-43.1963 152.097 -6.79766 149.385 28.7737 135.571C64.3451 121.757 100.744 119.045 137.97 127.434C175.196 135.823 211.594 133.11 247.166 119.296C282.737 105.482 319.135 102.77 356.361 111.159C393.587 119.548 429.986 116.836 465.557 103.022C501.129 89.2079 537.527 86.4954 574.753 94.8844C611.979 103.273 648.378 100.561 683.949 86.7471C719.52 72.9333 755.919 70.2209 793.145 78.6098C830.371 86.9988 866.77 84.2864 902.341 70.4726C937.912 56.6587 974.311 53.9463 1011.54 62.3353C1048.76 70.7242 1085.16 68.0118 1120.73 54.198C1156.3 40.3841 1192.7 37.6717 1229.93 46.0607C1267.15 54.4497 1303.55 51.7372 1339.12 37.9234C1374.7 24.1096 1411.09 21.3971 1448.32 29.7861C1485.55 38.1751 1521.94 35.4627 1557.52 21.6488C1593.09 7.835 1629.49 5.12257 1666.71 13.5115C1703.94 21.9005 1740.34 19.1881 1775.91 5.37426" stroke="#F2F7FF" stroke-opacity="0.1"/>
<path d="M-407.294 177.727C-371.723 163.914 -335.324 161.201 -298.098 169.59C-260.872 177.979 -224.474 175.267 -188.902 161.453C-153.331 147.639 -116.932 144.927 -79.7064 153.316C-42.4805 161.705 -6.08184 158.992 29.4895 145.178C65.0609 131.364 101.46 128.652 138.685 137.041C175.911 145.43 212.31 142.718 247.881 128.904C283.453 115.09 319.851 112.377 357.077 120.766C394.303 129.155 430.702 126.443 466.273 112.629C501.844 98.8153 538.243 96.1029 575.469 104.492C612.695 112.881 649.094 110.168 684.665 96.3546C720.236 82.5407 756.635 79.8283 793.861 88.2173C831.087 96.6062 867.485 93.8938 903.057 80.08C938.628 66.2661 975.027 63.5537 1012.25 71.9427C1049.48 80.3317 1085.88 77.6192 1121.45 63.8054C1157.02 49.9916 1193.42 47.2791 1230.64 55.6681C1267.87 64.0571 1304.27 61.3447 1339.84 47.5308C1375.41 33.717 1411.81 31.0046 1449.04 39.3935C1486.26 47.7825 1522.66 45.0701 1558.23 31.2563C1593.8 17.4424 1630.2 14.73 1667.43 23.119C1704.65 31.5079 1741.05 28.7955 1776.62 14.9817" stroke="#F2F7FF" stroke-opacity="0.1" stroke-width="2"/>
<path d="M-406.578 187.334C-371.007 173.52 -334.608 170.808 -297.382 179.197C-260.156 187.586 -223.758 184.873 -188.186 171.059C-152.615 157.245 -116.216 154.533 -78.9903 162.922C-41.7644 171.311 -5.36577 168.599 30.2056 154.785C65.7769 140.971 102.176 138.258 139.401 146.647C176.627 155.036 213.026 152.324 248.597 138.51C284.169 124.696 320.567 121.984 357.793 130.373C395.019 138.762 431.418 136.049 466.989 122.236C502.561 108.422 538.959 105.709 576.185 114.098C613.411 122.487 649.81 119.775 685.381 105.961C720.952 92.1472 757.351 89.4347 794.577 97.8237C831.803 106.213 868.201 103.5 903.773 89.6864C939.344 75.8726 975.743 73.1602 1012.97 81.5491C1050.19 89.9381 1086.59 87.2257 1122.16 73.4118C1157.74 59.598 1194.13 56.8856 1231.36 65.2746C1268.59 73.6635 1304.99 70.9511 1340.56 57.1373C1376.13 43.3234 1412.53 40.611 1449.75 49C1486.98 57.389 1523.38 54.6765 1558.95 40.8627C1594.52 27.0489 1630.92 24.3364 1668.14 32.7254C1705.37 41.1144 1741.77 38.402 1777.34 24.5881" stroke="#F2F7FF" stroke-opacity="0.1" stroke-width="2"/>
<path d="M-405.862 196.94C-370.291 183.126 -333.892 180.414 -296.666 188.803C-259.44 197.192 -223.042 194.48 -187.47 180.666C-151.899 166.852 -115.5 164.139 -78.2745 172.528C-41.0486 180.917 -4.64995 178.205 30.9214 164.391C66.4928 150.577 102.891 147.865 140.117 156.254C177.343 164.643 213.742 161.93 249.313 148.117C284.885 134.303 321.283 131.59 358.509 139.979C395.735 148.368 432.134 145.656 467.705 131.842C503.276 118.028 539.675 115.316 576.901 123.705C614.127 132.094 650.525 129.381 686.097 115.567C721.668 101.754 758.067 99.0412 795.293 107.43C832.519 115.819 868.917 113.107 904.489 99.2929C940.06 85.479 976.459 82.7666 1013.68 91.1556C1050.91 99.5446 1087.31 96.8321 1122.88 83.0183C1158.45 69.2045 1194.85 66.492 1232.08 74.881C1269.3 83.27 1305.7 80.5576 1341.27 66.7437C1376.84 52.9299 1413.24 50.2175 1450.47 58.6064C1487.69 66.9954 1524.09 64.283 1559.66 50.4691C1595.24 36.6553 1631.63 33.9429 1668.86 42.3319C1706.09 50.7208 1742.48 48.0084 1778.06 34.1946" stroke="#F2F7FF" stroke-opacity="0.1" stroke-width="2"/>
<path d="M-405.146 206.548C-369.575 192.734 -333.176 190.021 -295.95 198.41C-258.725 206.799 -222.326 204.087 -186.755 190.273C-151.183 176.459 -114.785 173.747 -77.5587 182.136C-40.3328 190.525 -3.93417 187.812 31.6372 173.999C67.2085 160.185 103.607 157.472 140.833 165.861C178.059 174.25 214.458 171.538 250.029 157.724C285.6 143.91 321.999 141.198 359.225 149.587C396.451 157.976 432.849 155.263 468.421 141.449C503.992 127.636 540.391 124.923 577.617 133.312C614.843 141.701 651.241 138.989 686.813 125.175C722.384 111.361 758.783 108.649 796.008 117.038C833.234 125.427 869.633 122.714 905.204 108.9C940.776 95.0865 977.174 92.374 1014.4 100.763C1051.63 109.152 1088.02 106.44 1123.6 92.6257C1159.17 78.8119 1195.57 76.0995 1232.79 84.4884C1270.02 92.8774 1306.42 90.165 1341.99 76.3512C1377.56 62.5373 1413.96 59.8249 1451.18 68.2139C1488.41 76.6029 1524.81 73.8904 1560.38 60.0766C1595.95 46.2627 1632.35 43.5503 1669.58 51.9393C1706.8 60.3283 1743.2 57.6158 1778.77 43.802" stroke="#F2F7FF" stroke-opacity="0.1" stroke-width="2"/>
<path d="M-404.431 216.154C-368.859 202.34 -332.461 199.628 -295.235 208.017C-258.009 216.406 -221.61 213.693 -186.039 199.88C-150.467 186.066 -114.069 183.353 -76.8429 191.742C-39.6169 200.131 -3.21831 197.419 32.353 183.605C67.9244 169.791 104.323 167.079 141.549 175.468C178.775 183.857 215.173 181.144 250.745 167.33C286.316 153.517 322.715 150.804 359.941 159.193C397.167 167.582 433.565 164.87 469.137 151.056C504.708 137.242 541.107 134.53 578.333 142.919C615.558 151.308 651.957 148.595 687.528 134.781C723.1 120.967 759.498 118.255 796.724 126.644C833.95 135.033 870.349 132.321 905.92 118.507C941.492 104.693 977.89 101.98 1015.12 110.369C1052.34 118.758 1088.74 116.046 1124.31 102.232C1159.88 88.4183 1196.28 85.7059 1233.51 94.0949C1270.73 102.484 1307.13 99.7714 1342.7 85.9576C1378.28 72.1437 1414.67 69.4313 1451.9 77.8203C1489.13 86.2093 1525.52 83.4969 1561.1 69.683C1596.67 55.8692 1633.07 53.1567 1670.29 61.5457C1707.52 69.9347 1743.92 67.2223 1779.49 53.4084" stroke="#F2F7FF" stroke-opacity="0.1" stroke-width="2"/>
<path d="M-403.715 225.761C-368.143 211.947 -331.745 209.234 -294.519 217.623C-257.293 226.012 -220.894 223.3 -185.323 209.486C-149.751 195.672 -113.353 192.96 -76.1268 201.349C-38.9009 209.738 -2.50225 207.025 33.0691 193.211C68.6405 179.398 105.039 176.685 142.265 185.074C179.491 193.463 215.89 190.751 251.461 176.937C287.032 163.123 323.431 160.411 360.657 168.8C397.883 177.189 434.281 174.476 469.853 160.662C505.424 146.848 541.823 144.136 579.049 152.525C616.275 160.914 652.673 158.202 688.245 144.388C723.816 130.574 760.215 127.861 797.44 136.25C834.666 144.639 871.065 141.927 906.636 128.113C942.208 114.299 978.606 111.587 1015.83 119.976C1053.06 128.365 1089.46 125.652 1125.03 111.839C1160.6 98.0248 1197 95.3123 1234.22 103.701C1271.45 112.09 1307.85 109.378 1343.42 95.564C1378.99 81.7502 1415.39 79.0378 1452.62 87.4267C1489.84 95.8157 1526.24 93.1033 1561.81 79.2895C1597.38 65.4756 1633.78 62.7632 1671.01 71.1522C1708.23 79.5412 1744.63 76.8287 1780.2 63.0149" stroke="#F2F7FF" stroke-opacity="0.1" stroke-width="2"/>
<path d="M-402.999 235.368C-367.427 221.554 -331.029 218.842 -293.803 227.231C-256.577 235.62 -220.178 232.907 -184.607 219.093C-149.036 205.28 -112.637 202.567 -75.411 210.956C-38.1851 219.345 -1.78647 216.633 33.7849 202.819C69.3562 189.005 105.755 186.293 142.981 194.682C180.207 203.071 216.605 200.358 252.177 186.544C287.748 172.73 324.147 170.018 361.373 178.407C398.598 186.796 434.997 184.084 470.568 170.27C506.14 156.456 542.538 153.743 579.764 162.132C616.99 170.521 653.389 167.809 688.96 153.995C724.532 140.181 760.93 137.469 798.156 145.858C835.382 154.247 871.781 151.534 907.352 137.721C942.923 123.907 979.322 121.194 1016.55 129.583C1053.77 137.972 1090.17 135.26 1125.74 121.446C1161.32 107.632 1197.71 104.92 1234.94 113.309C1272.17 121.698 1308.56 118.985 1344.14 105.171C1379.71 91.3576 1416.11 88.6452 1453.33 97.0342C1490.56 105.423 1526.96 102.711 1562.53 88.8969C1598.1 75.0831 1634.5 72.3706 1671.72 80.7596C1708.95 89.1486 1745.35 86.4362 1780.92 72.6223" stroke="#F2F7FF" stroke-opacity="0.1" stroke-width="2"/>
<path d="M-402.283 244.974C-366.711 231.161 -330.313 228.448 -293.087 236.837C-255.861 245.226 -219.462 242.514 -183.891 228.7C-148.319 214.886 -111.921 212.174 -74.6949 220.563C-37.469 228.952 -1.07036 226.239 34.501 212.425C70.0723 198.612 106.471 195.899 143.697 204.288C180.923 212.677 217.321 209.965 252.893 196.151C288.464 182.337 324.863 179.625 362.089 188.013C399.315 196.402 435.713 193.69 471.285 179.876C506.856 166.062 543.255 163.35 580.481 171.739C617.706 180.128 654.105 177.415 689.676 163.602C725.248 149.788 761.646 147.075 798.872 155.464C836.098 163.853 872.497 161.141 908.068 147.327C943.64 133.513 980.038 130.801 1017.26 139.19C1054.49 147.579 1090.89 144.866 1126.46 131.052C1162.03 117.239 1198.43 114.526 1235.66 122.915C1272.88 131.304 1309.28 128.592 1344.85 114.778C1380.42 100.964 1416.82 98.2516 1454.05 106.641C1491.27 115.03 1527.67 112.317 1563.24 98.5033C1598.81 84.6895 1635.21 81.9771 1672.44 90.366C1709.67 98.755 1746.06 96.0426 1781.64 82.2288" stroke="#F2F7FF" stroke-opacity="0.1" stroke-width="2"/>
<path d="M-401.567 254.581C-365.995 240.767 -329.597 238.055 -292.371 246.444C-255.145 254.833 -218.746 252.12 -183.175 238.306C-147.604 224.493 -111.205 221.78 -73.9791 230.169C-36.7532 238.558 -0.354541 235.846 35.2168 222.032C70.7882 208.218 107.187 205.506 144.413 213.895C181.639 222.283 218.037 219.571 253.609 205.757C289.18 191.943 325.579 189.231 362.805 197.62C400.03 206.009 436.429 203.296 472 189.483C507.572 175.669 543.97 172.956 581.196 181.345C618.422 189.734 654.821 187.022 690.392 173.208C725.964 159.394 762.362 156.682 799.588 165.071C836.814 173.46 873.213 170.747 908.784 156.933C944.355 143.12 980.754 140.407 1017.98 148.796C1055.21 157.185 1091.6 154.473 1127.18 140.659C1162.75 126.845 1199.15 124.133 1236.37 132.522C1273.6 140.911 1310 138.198 1345.57 124.384C1381.14 110.571 1417.54 107.858 1454.76 116.247C1491.99 124.636 1528.39 121.924 1563.96 108.11C1599.53 94.2959 1635.93 91.5835 1673.16 99.9725C1710.38 108.361 1746.78 105.649 1782.35 91.8352" stroke="#F2F7FF" stroke-opacity="0.1" stroke-width="2"/>
<path d="M-400.851 264.188C-365.28 250.375 -328.881 247.662 -291.655 256.051C-254.429 264.44 -218.031 261.728 -182.459 247.914C-146.888 234.1 -110.489 231.388 -73.2633 239.777C-36.0374 248.165 0.361235 245.453 35.9326 231.639C71.5039 217.825 107.903 215.113 145.128 223.502C182.354 231.891 218.753 229.178 254.324 215.365C289.896 201.551 326.294 198.838 363.52 207.227C400.746 215.616 437.145 212.904 472.716 199.09C508.288 185.276 544.686 182.564 581.912 190.953C619.138 199.342 655.537 196.629 691.108 182.815C726.679 169.002 763.078 166.289 800.304 174.678C837.53 183.067 873.928 180.355 909.5 166.541C945.071 152.727 981.47 150.015 1018.7 158.404C1055.92 166.793 1092.32 164.08 1127.89 150.266C1163.46 136.453 1199.86 133.74 1237.09 142.129C1274.31 150.518 1310.71 147.806 1346.28 133.992C1381.85 120.178 1418.25 117.466 1455.48 125.854C1492.71 134.243 1529.1 131.531 1564.68 117.717C1600.25 103.903 1636.65 101.191 1673.87 109.58C1711.1 117.969 1747.5 115.256 1783.07 101.443" stroke="#F2F7FF" stroke-opacity="0.1" stroke-width="2"/>
<path d="M-400.135 273.795C-364.564 259.981 -328.165 257.269 -290.939 265.658C-253.713 274.046 -217.315 271.334 -181.743 257.52C-146.172 243.706 -109.773 240.994 -72.5474 249.383C-35.3215 257.772 1.0771 255.059 36.6485 241.246C72.2198 227.432 108.618 224.719 145.844 233.108C183.07 241.497 219.469 238.785 255.04 224.971C290.612 211.157 327.01 208.445 364.236 216.834C401.462 225.223 437.861 222.51 473.432 208.697C509.003 194.883 545.402 192.17 582.628 200.559C619.854 208.948 656.253 206.236 691.824 192.422C727.395 178.608 763.794 175.896 801.02 184.285C838.246 192.674 874.644 189.961 910.216 176.147C945.787 162.334 982.186 159.621 1019.41 168.01C1056.64 176.399 1093.04 173.687 1128.61 159.873C1164.18 146.059 1200.58 143.347 1237.8 151.735C1275.03 160.124 1311.43 157.412 1347 143.598C1382.57 129.784 1418.97 127.072 1456.2 135.461C1493.42 143.85 1529.82 141.137 1565.39 127.324C1600.96 113.51 1637.36 110.797 1674.59 119.186C1711.81 127.575 1748.21 124.863 1783.78 111.049" stroke="#F2F7FF" stroke-opacity="0.1" stroke-width="2"/>
<path d="M-399.419 283.401C-363.848 269.587 -327.449 266.875 -290.223 275.264C-252.997 283.653 -216.599 280.941 -181.027 267.127C-145.456 253.313 -109.057 250.6 -71.8314 258.989C-34.6055 267.378 1.79312 264.666 37.3645 250.852C72.9358 237.038 109.334 234.326 146.56 242.715C183.786 251.104 220.185 248.391 255.756 234.578C291.328 220.764 327.726 218.051 364.952 226.44C402.178 234.829 438.577 232.117 474.148 218.303C509.719 204.489 546.118 201.777 583.344 210.166C620.57 218.555 656.968 215.842 692.54 202.028C728.111 188.215 764.51 185.502 801.736 193.891C838.962 202.28 875.36 199.568 910.932 185.754C946.503 171.94 982.902 169.228 1020.13 177.617C1057.35 186.006 1093.75 183.293 1129.32 169.479C1164.89 155.665 1201.29 152.953 1238.52 161.342C1275.75 169.731 1312.14 167.019 1347.72 153.205C1383.29 139.391 1419.69 136.678 1456.91 145.067C1494.14 153.456 1530.54 150.744 1566.11 136.93C1601.68 123.116 1638.08 120.404 1675.3 128.793C1712.53 137.182 1748.93 134.469 1784.5 120.656" stroke="#F2F7FF" stroke-opacity="0.1" stroke-width="2"/>
<path d="M-398.703 293.009C-363.132 279.195 -326.733 276.482 -289.507 284.871C-252.281 293.26 -215.883 290.548 -180.311 276.734C-144.74 262.92 -108.342 260.208 -71.1156 268.597C-33.8897 276.986 2.50894 274.273 38.0803 260.46C73.6516 246.646 110.05 243.933 147.276 252.322C184.502 260.711 220.901 257.999 256.472 244.185C292.043 230.371 328.442 227.659 365.668 236.048C402.894 244.437 439.293 241.724 474.864 227.91C510.435 214.097 546.834 211.384 584.06 219.773C621.286 228.162 657.684 225.45 693.256 211.636C728.827 197.822 765.226 195.11 802.452 203.499C839.677 211.888 876.076 209.175 911.647 195.361C947.219 181.547 983.617 178.835 1020.84 187.224C1058.07 195.613 1094.47 192.901 1130.04 179.087C1165.61 165.273 1202.01 162.56 1239.24 170.949C1276.46 179.338 1312.86 176.626 1348.43 162.812C1384 148.998 1420.4 146.286 1457.63 154.675C1494.85 163.064 1531.25 160.351 1566.82 146.538C1602.39 132.724 1638.79 130.011 1676.02 138.4C1713.24 146.789 1749.64 144.077 1785.21 130.263" stroke="#F2F7FF" stroke-opacity="0.1" stroke-width="2"/>
<path d="M-397.987 302.615C-362.416 288.801 -326.017 286.089 -288.792 294.478C-251.566 302.867 -215.167 300.154 -179.596 286.341C-144.024 272.527 -107.626 269.814 -70.3997 278.203C-33.1738 286.592 3.2248 283.88 38.7962 270.066C74.3675 256.252 110.766 253.54 147.992 261.929C185.218 270.318 221.617 267.605 257.188 253.791C292.759 239.978 329.158 237.265 366.384 245.654C403.61 254.043 440.008 251.331 475.58 237.517C511.151 223.703 547.55 220.991 584.776 229.38C622.002 237.769 658.4 235.056 693.972 221.242C729.543 207.428 765.942 204.716 803.167 213.105C840.393 221.494 876.792 218.782 912.363 204.968C947.935 191.154 984.333 188.441 1021.56 196.83C1058.79 205.219 1095.18 202.507 1130.76 188.693C1166.33 174.879 1202.73 172.167 1239.95 180.556C1277.18 188.945 1313.58 186.232 1349.15 172.419C1384.72 158.605 1421.12 155.892 1458.34 164.281C1495.57 172.67 1531.97 169.958 1567.54 156.144C1603.11 142.33 1639.51 139.618 1676.73 148.007C1713.96 156.396 1750.36 153.683 1785.93 139.869" stroke="#F2F7FF" stroke-opacity="0.1" stroke-width="2"/>
<path d="M-397.271 312.222C-361.7 298.408 -325.301 295.695 -288.075 304.084C-250.85 312.473 -214.451 309.761 -178.88 295.947C-143.308 282.133 -106.91 279.421 -69.6837 287.81C-32.4578 296.199 3.94083 293.486 39.5122 279.672C75.0835 265.859 111.482 263.146 148.708 271.535C185.934 279.924 222.333 277.212 257.904 263.398C293.475 249.584 329.874 246.872 367.1 255.261C404.326 263.65 440.724 260.937 476.296 247.123C511.867 233.309 548.266 230.597 585.492 238.986C622.718 247.375 659.116 244.663 694.688 230.849C730.259 217.035 766.658 214.322 803.883 222.711C841.109 231.1 877.508 228.388 913.079 214.574C948.651 200.76 985.049 198.048 1022.28 206.437C1059.5 214.826 1095.9 212.113 1131.47 198.3C1167.04 184.486 1203.44 181.773 1240.67 190.162C1277.89 198.551 1314.29 195.839 1349.86 182.025C1385.43 168.211 1421.83 165.499 1459.06 173.888C1496.28 182.277 1532.68 179.564 1568.25 165.75C1603.83 151.937 1640.22 149.224 1677.45 157.613C1714.68 166.002 1751.08 163.29 1786.65 149.476" stroke="#F2F7FF" stroke-opacity="0.1" stroke-width="2"/>
</g>
<path d="M33.864 39.084H27.564L26.322 42H23.91L29.58 29.4H31.884L37.572 42H35.124L33.864 39.084ZM33.09 37.248L30.714 31.74L28.356 37.248H33.09ZM47.9065 37.248C47.9065 37.404 47.8945 37.626 47.8705 37.914H40.3285C40.4605 38.622 40.8025 39.186 41.3545 39.606C41.9185 40.014 42.6145 40.218 43.4425 40.218C44.4985 40.218 45.3685 39.87 46.0525 39.174L47.2585 40.56C46.8265 41.076 46.2805 41.466 45.6205 41.73C44.9605 41.994 44.2165 42.126 43.3885 42.126C42.3325 42.126 41.4025 41.916 40.5985 41.496C39.7945 41.076 39.1705 40.494 38.7265 39.75C38.2945 38.994 38.0785 38.142 38.0785 37.194C38.0785 36.258 38.2885 35.418 38.7085 34.674C39.1405 33.918 39.7345 33.33 40.4905 32.91C41.2465 32.49 42.0985 32.28 43.0465 32.28C43.9825 32.28 44.8165 32.49 45.5485 32.91C46.2925 33.318 46.8685 33.9 47.2765 34.656C47.6965 35.4 47.9065 36.264 47.9065 37.248ZM43.0465 34.08C42.3265 34.08 41.7145 34.296 41.2105 34.728C40.7185 35.148 40.4185 35.712 40.3105 36.42H45.7645C45.6685 35.724 45.3745 35.16 44.8825 34.728C44.3905 34.296 43.7785 34.08 43.0465 34.08ZM52.2098 33.792C52.8578 32.784 53.9978 32.28 55.6298 32.28V34.422C55.4378 34.386 55.2638 34.368 55.1078 34.368C54.2318 34.368 53.5478 34.626 53.0558 35.142C52.5638 35.646 52.3178 36.378 52.3178 37.338V42H50.0678V32.388H52.2098V33.792ZM61.7706 42.126C60.7986 42.126 59.9226 41.916 59.1426 41.496C58.3626 41.076 57.7506 40.494 57.3066 39.75C56.8746 38.994 56.6586 38.142 56.6586 37.194C56.6586 36.246 56.8746 35.4 57.3066 34.656C57.7506 33.912 58.3626 33.33 59.1426 32.91C59.9226 32.49 60.7986 32.28 61.7706 32.28C62.7546 32.28 63.6366 32.49 64.4166 32.91C65.1966 33.33 65.8026 33.912 66.2346 34.656C66.6786 35.4 66.9006 36.246 66.9006 37.194C66.9006 38.142 66.6786 38.994 66.2346 39.75C65.8026 40.494 65.1966 41.076 64.4166 41.496C63.6366 41.916 62.7546 42.126 61.7706 42.126ZM61.7706 40.2C62.5986 40.2 63.2826 39.924 63.8226 39.372C64.3626 38.82 64.6326 38.094 64.6326 37.194C64.6326 36.294 64.3626 35.568 63.8226 35.016C63.2826 34.464 62.5986 34.188 61.7706 34.188C60.9426 34.188 60.2586 34.464 59.7186 35.016C59.1906 35.568 58.9266 36.294 58.9266 37.194C58.9266 38.094 59.1906 38.82 59.7186 39.372C60.2586 39.924 60.9426 40.2 61.7706 40.2ZM73.4622 42.126C72.4662 42.126 71.5722 41.916 70.7802 41.496C69.9882 41.076 69.3702 40.494 68.9262 39.75C68.4822 38.994 68.2602 38.142 68.2602 37.194C68.2602 36.246 68.4822 35.4 68.9262 34.656C69.3702 33.912 69.9822 33.33 70.7622 32.91C71.5542 32.49 72.4542 32.28 73.4622 32.28C74.4102 32.28 75.2382 32.472 75.9462 32.856C76.6662 33.24 77.2062 33.792 77.5662 34.512L75.8382 35.52C75.5622 35.076 75.2142 34.746 74.7942 34.53C74.3862 34.302 73.9362 34.188 73.4442 34.188C72.6042 34.188 71.9082 34.464 71.3562 35.016C70.8042 35.556 70.5282 36.282 70.5282 37.194C70.5282 38.106 70.7982 38.838 71.3382 39.39C71.8902 39.93 72.5922 40.2 73.4442 40.2C73.9362 40.2 74.3862 40.092 74.7942 39.876C75.2142 39.648 75.5622 39.312 75.8382 38.868L77.5662 39.876C77.1942 40.596 76.6482 41.154 75.9282 41.55C75.2202 41.934 74.3982 42.126 73.4622 42.126ZM83.1832 32.28C84.5992 32.28 85.6792 32.622 86.4232 33.306C87.1792 33.978 87.5572 34.998 87.5572 36.366V42H85.4332V40.83C85.1572 41.25 84.7612 41.574 84.2452 41.802C83.7412 42.018 83.1292 42.126 82.4092 42.126C81.6892 42.126 81.0592 42.006 80.5192 41.766C79.9792 41.514 79.5592 41.172 79.2592 40.74C78.9712 40.296 78.8272 39.798 78.8272 39.246C78.8272 38.382 79.1452 37.692 79.7812 37.176C80.4292 36.648 81.4432 36.384 82.8232 36.384H85.3072V36.24C85.3072 35.568 85.1032 35.052 84.6952 34.692C84.2992 34.332 83.7052 34.152 82.9132 34.152C82.3732 34.152 81.8392 34.236 81.3112 34.404C80.7952 34.572 80.3572 34.806 79.9972 35.106L79.1152 33.468C79.6192 33.084 80.2252 32.79 80.9332 32.586C81.6412 32.382 82.3912 32.28 83.1832 32.28ZM82.8772 40.488C83.4412 40.488 83.9392 40.362 84.3712 40.11C84.8152 39.846 85.1272 39.474 85.3072 38.994V37.878H82.9852C81.6892 37.878 81.0412 38.304 81.0412 39.156C81.0412 39.564 81.2032 39.888 81.5272 40.128C81.8512 40.368 82.3012 40.488 82.8772 40.488ZM92.5868 33.792C93.2348 32.784 94.3748 32.28 96.0068 32.28V34.422C95.8148 34.386 95.6408 34.368 95.4848 34.368C94.6088 34.368 93.9248 34.626 93.4328 35.142C92.9408 35.646 92.6948 36.378 92.6948 37.338V42H90.4448V32.388H92.5868V33.792ZM107.242 28.644V42H105.082V40.758C104.71 41.214 104.248 41.556 103.696 41.784C103.156 42.012 102.556 42.126 101.896 42.126C100.972 42.126 100.138 41.922 99.3936 41.514C98.6616 41.106 98.0856 40.53 97.6656 39.786C97.2456 39.03 97.0356 38.166 97.0356 37.194C97.0356 36.222 97.2456 35.364 97.6656 34.62C98.0856 33.876 98.6616 33.3 99.3936 32.892C100.138 32.484 100.972 32.28 101.896 32.28C102.532 32.28 103.114 32.388 103.642 32.604C104.17 32.82 104.62 33.144 104.992 33.576V28.644H107.242ZM102.166 40.2C102.706 40.2 103.192 40.08 103.624 39.84C104.056 39.588 104.398 39.234 104.65 38.778C104.902 38.322 105.028 37.794 105.028 37.194C105.028 36.594 104.902 36.066 104.65 35.61C104.398 35.154 104.056 34.806 103.624 34.566C103.192 34.314 102.706 34.188 102.166 34.188C101.626 34.188 101.14 34.314 100.708 34.566C100.276 34.806 99.9336 35.154 99.6816 35.61C99.4296 36.066 99.3036 36.594 99.3036 37.194C99.3036 37.794 99.4296 38.322 99.6816 38.778C99.9336 39.234 100.276 39.588 100.708 39.84C101.14 40.08 101.626 40.2 102.166 40.2Z" fill="#F5F9FF"/>
<path d="M232 35.5C232 28.8726 237.373 23.5 244 23.5C250.627 23.5 256 28.8726 256 35.5C256 42.1274 250.627 47.5 244 47.5C237.373 47.5 232 42.1274 232 35.5Z" fill="#F5F9FF"/>
<g clip-path="url(#clip0_1948_2918)">
<path fill-rule="evenodd" clip-rule="evenodd" d="M246.951 28.9017C246.865 28.7566 246.676 28.7069 246.528 28.7907L241.468 31.658C241.353 31.7233 241.293 31.8537 241.32 31.9816L243.023 40.1496C243.031 40.1889 243.014 40.247 242.988 40.2755L242.781 40.5045C242.351 40.9807 241.987 41.2386 241.294 41.2386C240.518 41.2386 240.153 40.8369 239.575 40.1267C238.886 39.2786 238.028 38.2233 235.942 38.2233H235.89C235.606 38.2233 235.375 38.4496 235.375 38.7289C235.375 39.0081 235.606 39.2345 235.89 39.2345H235.942C237.532 39.2345 238.133 39.9742 238.77 40.7574C239.339 41.4571 239.984 42.25 241.294 42.25C242.426 42.25 243.048 41.7335 243.552 41.1755L245.412 39.1171C245.412 39.117 249.836 34.2211 249.836 34.2211C249.924 34.1234 249.939 33.9812 249.872 33.8681L246.951 28.9017Z" fill="#252F3D"/>
</g>
<path d="M26.842 133.14C26.2167 133.14 25.638 133.019 25.106 132.776C24.5833 132.524 24.154 132.174 23.818 131.726L24.854 130.48C25.3953 131.227 26.044 131.6 26.8 131.6C27.8173 131.6 28.326 130.998 28.326 129.794V124.726H24.84V123.2H30.146V129.696C30.146 130.844 29.866 131.707 29.306 132.286C28.746 132.855 27.9247 133.14 26.842 133.14ZM35.8908 133.098C35.1348 133.098 34.4535 132.935 33.8468 132.608C33.2401 132.281 32.7641 131.829 32.4188 131.25C32.0828 130.662 31.9148 129.999 31.9148 129.262C31.9148 128.525 32.0828 127.867 32.4188 127.288C32.7641 126.709 33.2401 126.257 33.8468 125.93C34.4535 125.603 35.1348 125.44 35.8908 125.44C36.6561 125.44 37.3421 125.603 37.9488 125.93C38.5555 126.257 39.0268 126.709 39.3628 127.288C39.7081 127.867 39.8808 128.525 39.8808 129.262C39.8808 129.999 39.7081 130.662 39.3628 131.25C39.0268 131.829 38.5555 132.281 37.9488 132.608C37.3421 132.935 36.6561 133.098 35.8908 133.098ZM35.8908 131.6C36.5348 131.6 37.0668 131.385 37.4868 130.956C37.9068 130.527 38.1168 129.962 38.1168 129.262C38.1168 128.562 37.9068 127.997 37.4868 127.568C37.0668 127.139 36.5348 126.924 35.8908 126.924C35.2468 126.924 34.7148 127.139 34.2948 127.568C33.8841 127.997 33.6788 128.562 33.6788 129.262C33.6788 129.962 33.8841 130.527 34.2948 130.956C34.7148 131.385 35.2468 131.6 35.8908 131.6ZM45.7963 125.44C46.7389 125.44 47.4949 125.715 48.0643 126.266C48.6336 126.817 48.9183 127.633 48.9183 128.716V133H47.1683V128.94C47.1683 128.287 47.0143 127.797 46.7063 127.47C46.3983 127.134 45.9596 126.966 45.3903 126.966C44.7463 126.966 44.2376 127.162 43.8643 127.554C43.4909 127.937 43.3043 128.492 43.3043 129.22V133H41.5543V122.612H43.3043V126.392C43.5936 126.084 43.9483 125.851 44.3683 125.692C44.7976 125.524 45.2736 125.44 45.7963 125.44ZM55.3802 125.44C56.3229 125.44 57.0789 125.715 57.6482 126.266C58.2176 126.817 58.5022 127.633 58.5022 128.716V133H56.7522V128.94C56.7522 128.287 56.5982 127.797 56.2902 127.47C55.9822 127.134 55.5436 126.966 54.9742 126.966C54.3302 126.966 53.8216 127.162 53.4482 127.554C53.0749 127.937 52.8882 128.492 52.8882 129.22V133H51.1382V125.524H52.8042V126.49C53.0936 126.145 53.4576 125.883 53.8962 125.706C54.3349 125.529 54.8296 125.44 55.3802 125.44ZM68.1334 128.898L66.5794 130.494V133H64.7594V123.2H66.5794V128.226L71.4234 123.2H73.4674L69.3514 127.582L73.7194 133H71.5914L68.1334 128.898ZM74.6539 125.524H76.4039V133H74.6539V125.524ZM75.5359 124.292C75.2185 124.292 74.9525 124.194 74.7379 123.998C74.5232 123.793 74.4159 123.541 74.4159 123.242C74.4159 122.943 74.5232 122.696 74.7379 122.5C74.9525 122.295 75.2185 122.192 75.5359 122.192C75.8532 122.192 76.1192 122.29 76.3339 122.486C76.5485 122.673 76.6559 122.911 76.6559 123.2C76.6559 123.508 76.5485 123.769 76.3339 123.984C76.1285 124.189 75.8625 124.292 75.5359 124.292ZM83.1947 132.594C82.9894 132.762 82.7374 132.888 82.4387 132.972C82.1494 133.056 81.8414 133.098 81.5147 133.098C80.6934 133.098 80.0587 132.883 79.6107 132.454C79.1627 132.025 78.9387 131.399 78.9387 130.578V126.98H77.7067V125.58H78.9387V123.872H80.6887V125.58H82.6907V126.98H80.6887V130.536C80.6887 130.9 80.7774 131.18 80.9547 131.376C81.1321 131.563 81.3887 131.656 81.7247 131.656C82.1167 131.656 82.4434 131.553 82.7047 131.348L83.1947 132.594ZM91.4162 129.304C91.4162 129.425 91.4069 129.598 91.3882 129.822H85.5222C85.6249 130.373 85.8909 130.811 86.3202 131.138C86.7589 131.455 87.3002 131.614 87.9442 131.614C88.7656 131.614 89.4422 131.343 89.9742 130.802L90.9122 131.88C90.5762 132.281 90.1516 132.585 89.6382 132.79C89.1249 132.995 88.5462 133.098 87.9022 133.098C87.0809 133.098 86.3576 132.935 85.7322 132.608C85.1069 132.281 84.6216 131.829 84.2762 131.25C83.9402 130.662 83.7722 129.999 83.7722 129.262C83.7722 128.534 83.9356 127.881 84.2622 127.302C84.5982 126.714 85.0602 126.257 85.6482 125.93C86.2362 125.603 86.8989 125.44 87.6362 125.44C88.3642 125.44 89.0129 125.603 89.5822 125.93C90.1609 126.247 90.6089 126.7 90.9262 127.288C91.2529 127.867 91.4162 128.539 91.4162 129.304ZM87.6362 126.84C87.0762 126.84 86.6002 127.008 86.2082 127.344C85.8256 127.671 85.5922 128.109 85.5082 128.66H89.7502C89.6756 128.119 89.4469 127.68 89.0642 127.344C88.6816 127.008 88.2056 126.84 87.6362 126.84Z" fill="#F5F9FF"/>
<path d="M221.903 133.14C221.119 133.14 220.419 132.944 219.803 132.552C219.187 132.151 218.702 131.572 218.347 130.816C217.993 130.051 217.815 129.145 217.815 128.1C217.815 127.055 217.993 126.154 218.347 125.398C218.702 124.633 219.187 124.054 219.803 123.662C220.419 123.261 221.119 123.06 221.903 123.06C222.687 123.06 223.387 123.261 224.003 123.662C224.629 124.054 225.119 124.633 225.473 125.398C225.828 126.154 226.005 127.055 226.005 128.1C226.005 129.145 225.828 130.051 225.473 130.816C225.119 131.572 224.629 132.151 224.003 132.552C223.387 132.944 222.687 133.14 221.903 133.14ZM221.903 131.558C222.603 131.558 223.154 131.269 223.555 130.69C223.966 130.111 224.171 129.248 224.171 128.1C224.171 126.952 223.966 126.089 223.555 125.51C223.154 124.931 222.603 124.642 221.903 124.642C221.213 124.642 220.662 124.931 220.251 125.51C219.85 126.089 219.649 126.952 219.649 128.1C219.649 129.248 219.85 130.111 220.251 130.69C220.662 131.269 221.213 131.558 221.903 131.558ZM234.559 123.2V124.418L230.751 133H228.805L232.487 124.74H228.637V126.406H226.943V123.2H234.559ZM238.708 121.212H240.276L235.656 134.4H234.088L238.708 121.212ZM247.417 131.46V133H240.193V131.782L244.085 128.086C244.524 127.666 244.818 127.302 244.967 126.994C245.126 126.677 245.205 126.364 245.205 126.056C245.205 125.599 245.051 125.249 244.743 125.006C244.435 124.763 243.982 124.642 243.385 124.642C242.386 124.642 241.621 124.983 241.089 125.664L239.815 124.684C240.198 124.171 240.711 123.774 241.355 123.494C242.008 123.205 242.736 123.06 243.539 123.06C244.603 123.06 245.452 123.312 246.087 123.816C246.722 124.32 247.039 125.006 247.039 125.874C247.039 126.406 246.927 126.905 246.703 127.372C246.479 127.839 246.05 128.371 245.415 128.968L242.797 131.46H247.417ZM252.64 127.246C253.545 127.358 254.236 127.666 254.712 128.17C255.188 128.674 255.426 129.304 255.426 130.06C255.426 130.629 255.281 131.147 254.992 131.614C254.702 132.081 254.264 132.454 253.676 132.734C253.097 133.005 252.388 133.14 251.548 133.14C250.848 133.14 250.171 133.042 249.518 132.846C248.874 132.641 248.323 132.361 247.866 132.006L248.65 130.592C249.004 130.891 249.434 131.129 249.938 131.306C250.451 131.474 250.978 131.558 251.52 131.558C252.164 131.558 252.668 131.427 253.032 131.166C253.405 130.895 253.592 130.531 253.592 130.074C253.592 129.617 253.414 129.262 253.06 129.01C252.714 128.749 252.182 128.618 251.464 128.618H250.568V127.372L252.794 124.726H248.342V123.2H255.02V124.418L252.64 127.246Z" fill="#F5F9FF"/>
</g>
<defs>
<filter id="filter0_d_1948_2918" x="0" y="0" width="280" height="164" filterUnits="userSpaceOnUse" color-interpolation-filters="sRGB">
<feFlood flood-opacity="0" result="BackgroundImageFix"/>
<feColorMatrix in="SourceAlpha" type="matrix" values="0 0 0 0 0 0 0 0 0 0 0 0 0 0 0 0 0 0 127 0" result="hardAlpha"/>
<feOffset dy="2"/>
<feGaussianBlur stdDeviation="4"/>
<feComposite in2="hardAlpha" operator="out"/>
<feColorMatrix type="matrix" values="0 0 0 0 0 0 0 0 0 0 0 0 0 0 0 0 0 0 0.05 0"/>
<feBlend mode="normal" in2="BackgroundImageFix" result="effect1_dropShadow_1948_2918"/>
<feBlend mode="normal" in="SourceGraphic" in2="effect1_dropShadow_1948_2918" result="shape"/>
</filter>
<filter id="filter1_d_1948_2918" x="0" y="0" width="280" height="164" filterUnits="userSpaceOnUse" color-interpolation-filters="sRGB">
<feFlood flood-opacity="0" result="BackgroundImageFix"/>
<feColorMatrix in="SourceAlpha" type="matrix" values="0 0 0 0 0 0 0 0 0 0 0 0 0 0 0 0 0 0 127 0" result="hardAlpha"/>
<feOffset dy="2"/>
<feGaussianBlur stdDeviation="4"/>
<feComposite in2="hardAlpha" operator="out"/>
<feColorMatrix type="matrix" values="0 0 0 0 0 0 0 0 0 0 0 0 0 0 0 0 0 0 0.05 0"/>
<feBlend mode="normal" in2="BackgroundImageFix" result="effect1_dropShadow_1948_2918"/>
<feBlend mode="normal" in="SourceGraphic" in2="effect1_dropShadow_1948_2918" result="shape"/>
</filter>
<clipPath id="clip0_1948_2918">
<rect width="14.625" height="13.5" fill="white" transform="translate(235.375 28.75)"/>
</clipPath>
</defs>
</svg>
